<?xml version="1.0" encoding="UTF-8" standalone="no"?>
<svg
   xmlns:dc="http://purl.org/dc/elements/1.1/"
   xmlns:cc="http://creativecommons.org/ns#"
   xmlns:rdf="http://www.w3.org/1999/02/22-rdf-syntax-ns#"
   xmlns:svg="http://www.w3.org/2000/svg"
   xmlns="http://www.w3.org/2000/svg"
   xmlns:xlink="http://www.w3.org/1999/xlink"
   xmlns:sodipodi="http://sodipodi.sourceforge.net/DTD/sodipodi-0.dtd"
   xmlns:inkscape="http://www.inkscape.org/namespaces/inkscape"
   version="1.1"
   width="24"
   height="24"
   id="svg4524"
   inkscape:version="0.91 r13725"
   sodipodi:docname="debug-down.svg">
  <sodipodi:namedview
     pagecolor="#ffffff"
     bordercolor="#666666"
     borderopacity="1"
     objecttolerance="10"
     gridtolerance="10"
     guidetolerance="10"
     inkscape:pageopacity="0"
     inkscape:pageshadow="2"
     inkscape:window-width="1131"
     inkscape:window-height="569"
     id="namedview22"
     showgrid="false"
     inkscape:zoom="9.8333333"
     inkscape:cx="10.016949"
     inkscape:cy="12"
     inkscape:window-x="2213"
     inkscape:window-y="225"
     inkscape:window-maximized="0"
     inkscape:current-layer="svg4524" />
  <defs
     id="defs4526">
    <linearGradient
       id="linearGradient2867-449-88-871-390-598-476-591-434-148-57-177-641-289-620-227-114-444-680-744-4-1">
      <stop
         id="stop5430-5-0"
         style="stop-color:#737373;stop-opacity:1"
         offset="0" />
      <stop
         id="stop5432-2-0"
         style="stop-color:#636363;stop-opacity:1"
         offset="0.26238" />
      <stop
         id="stop5434-9-6"
         style="stop-color:#4b4b4b;stop-opacity:1"
         offset="0.704952" />
      <stop
         id="stop5436-2-7"
         style="stop-color:#3f3f3f;stop-opacity:1"
         offset="1" />
    </linearGradient>
    <radialGradient
       cx="16.202444"
       cy="-19.005346"
       r="19.99999"
       fx="16.202444"
       fy="-19.005346"
       id="radialGradient3769"
       xlink:href="#linearGradient2867-449-88-871-390-598-476-591-434-148-57-177-641-289-620-227-114-444-680-744-4-1"
       gradientUnits="userSpaceOnUse"
       gradientTransform="matrix(0,1.5000006,-1.5241254,0,-16.959842,-23.077676)" />
    <radialGradient
       cx="16.202444"
       cy="-19.005346"
       r="19.99999"
       fx="16.202444"
       fy="-19.005346"
       id="radialGradient3896"
       xlink:href="#linearGradient2867-449-88-871-390-598-476-591-434-148-57-177-641-289-620-227-114-444-680-744-4-1"
       gradientUnits="userSpaceOnUse"
       gradientTransform="matrix(0,1.5000006,-1.5241254,0,-17.131885,-23.077676)" />
    <radialGradient
       cx="22.818085"
       cy="-25.988077"
       r="19.99999"
       fx="22.818085"
       fy="-25.988077"
       id="radialGradient3896-0"
       xlink:href="#linearGradient2867-449-88-871-390-598-476-591-434-148-57-177-641-289-620-227-114-444-680-744-4-1-5"
       gradientUnits="userSpaceOnUse"
       gradientTransform="matrix(-1.9763812,0,0,-1.9528505,56.550543,-53.108492)" />
    <linearGradient
       id="linearGradient2867-449-88-871-390-598-476-591-434-148-57-177-641-289-620-227-114-444-680-744-4-1-5">
      <stop
         id="stop5430-5-0-9"
         style="stop-color:#737373;stop-opacity:1"
         offset="0" />
      <stop
         id="stop5432-2-0-0"
         style="stop-color:#636363;stop-opacity:1"
         offset="0.26238" />
      <stop
         id="stop5434-9-6-8"
         style="stop-color:#4b4b4b;stop-opacity:1"
         offset="0.704952" />
      <stop
         id="stop5436-2-7-0"
         style="stop-color:#3f3f3f;stop-opacity:1"
         offset="1" />
    </linearGradient>
  </defs>
  <metadata
     id="metadata4529">
    <rdf:RDF>
      <cc:Work
         rdf:about="">
        <dc:format>image/svg+xml</dc:format>
        <dc:type
           rdf:resource="http://purl.org/dc/dcmitype/StillImage" />
        <dc:title />
      </cc:Work>
    </rdf:RDF>
  </metadata>
  <path
     d="m 3.2790022,12.107269 c -0.011156,0.314929 0.1143468,0.609188 0.3201675,0.84085 l 7.9330083,9.129211 c 0.167228,0.188223 0.360792,0.305811 0.569185,0.360361 0.10704,0.02804 0.213283,0.04777 0.320166,0.04004 0.03449,0.0022 0.07199,0.0015 0.106722,0 0.06259,-0.01217 0.118385,-0.01507 0.177873,-0.04004 0.214891,-0.05209 0.432626,-0.16662 0.604761,-0.360362 l 7.933008,-9.129213 c 0.411638,-0.463321 0.374793,-1.219806 -0.07115,-1.721736 l -1.60083,-1.8018197 c -0.445943,-0.5019297 -1.153621,-0.5434 -1.565258,-0.08008 l -3.308385,3.7237537 0,-8.4084795 c 0,-0.7098359 -0.507714,-1.2812919 -1.138369,-1.2812925 l -2.276738,1.5e-6 c -0.630655,-3e-7 -1.138369,0.5714562 -1.13837,1.281293 l -1e-6,8.4485195 L 6.8008367,9.3444796 C 6.3891952,8.8811629 5.7170926,8.9226345 5.2711507,9.4245603 L 3.6347416,11.226376 c -0.2229701,0.250965 -0.3445461,0.565962 -0.3557405,0.880889 z"
     id="rect3811-1-7"
     style="color:#000000;display:inline;overflow:visible;visibility:visible;opacity:0.35;fill:#ffffff;fill-opacity:1;fill-rule:nonzero;stroke:none;stroke-width:1;marker:none;enable-background:accumulate"
     inkscape:connector-curvature="0" />
  <path
     d="m 3.2790024,10.826454 c -0.011156,0.314928 0.1143476,0.609188 0.3201658,0.840848 l 7.9330088,9.129211 c 0.16723,0.188225 0.360793,0.305812 0.569185,0.360361 0.107029,0.02802 0.213287,0.04778 0.320165,0.04004 0.03448,0.0022 0.07199,0.0015 0.106723,0 0.06259,-0.01217 0.118384,-0.01507 0.177872,-0.04004 0.214891,-0.05209 0.432626,-0.166619 0.604762,-0.360363 l 7.933006,-9.129212 c 0.411639,-0.463321 0.374795,-1.219806 -0.07115,-1.7217357 L 19.57191,8.1437459 c -0.445941,-0.50193 -1.153618,-0.5433991 -1.565257,-0.080082 l -3.308387,3.7237526 2e-6,-8.4084784 c -1e-6,-0.7098359 -0.507714,-1.281293 -1.13837,-1.2812931 l -2.276736,2.2e-6 c -0.630656,6e-7 -1.138369,0.5714549 -1.138369,1.2812907 l 0,8.4485206 L 6.8008339,8.0636655 C 6.3891957,7.6003459 5.7170923,7.6418151 5.2711514,8.1437459 L 3.6347409,9.9455646 C 3.4117694,10.196527 3.2901951,10.511526 3.2790007,10.826453 Z"
     id="rect3811-1"
     style="color:#000000;display:inline;overflow:visible;visibility:visible;fill:url(#radialGradient3896-0);fill-opacity:1;fill-rule:nonzero;stroke:none;stroke-width:1;marker:none;enable-background:accumulate"
     inkscape:connector-curvature="0" />
  <path
     d="m 3.8398121,10.866924 c -0.00387,0.109077 0.024521,0.227805 0.1422944,0.360363 l 7.9330085,9.129209 c 0.09618,0.108256 0.211192,0.171676 0.320169,0.200199 0.08374,0.02192 0.120959,0.0015 0.142298,0 a 0.56581213,0.63685041 0 0 1 0.03558,10e-7 c 0.05149,-0.0099 0.02497,0.0016 0.03557,2e-6 0.0059,3.71e-4 0.01127,0.0011 0.03558,0 a 0.56581213,0.63685041 0 0 1 0.106723,-0.04004 c 0.124889,-0.03028 0.237868,-0.06752 0.320157,-0.160154 l 7.933012,-9.129196 c 0.181976,-0.204823 0.184835,-0.552729 -0.07115,-0.840849 L 19.172228,8.5846372 C 18.926888,8.3084923 18.560053,8.3127045 18.3896,8.5045572 l -3.308385,3.7237518 a 0.56581213,0.63685041 0 0 1 -0.9605,-0.44045 l -3e-6,-8.4084786 c 0,-0.3680705 -0.24217,-0.6406477 -0.569183,-0.6406457 l -2.276746,-7.6e-6 c -0.327014,0 -0.569184,0.2725758 -0.569184,0.6406463 l 0,8.4485196 A 0.56581213,0.63685041 0 0 1 9.7451014,12.268336 L 6.4011424,8.5045423 C 6.2191669,8.2997214 5.910067,8.2965036 5.6540878,8.5846206 L 4.0176805,10.386434 c -0.1283089,0.144419 -0.1726176,0.332637 -0.1778696,0.480488 z"
     id="path3996"
     style="color:#000000;display:inline;overflow:visible;visibility:visible;opacity:0.1;fill:none;stroke:#000000;stroke-width:1.20771849;stroke-linecap:round;stroke-linejoin:round;stroke-miterlimit:4;stroke-dasharray:none;stroke-dashoffset:0;stroke-opacity:1;marker:none;enable-background:accumulate"
     inkscape:connector-curvature="0" />
  <path
     d="M 5.2091937,10.889211 12.430721,19.217612 19.652249,10.92925 18.762898,9.928239 15.8814,13.171512 a 1.6642058,1.8731486 0 0 1 -2.84592,-1.321333 l 0,-7.8078758 -1.209517,0 0,7.8479158 A 1.6642058,1.8731486 0 0 1 8.9800428,13.211555 L 6.0629711,9.9282428 5.2091942,10.889212 Z"
     id="path3996-3"
     style="color:#000000;display:inline;overflow:visible;visibility:visible;opacity:0.02999998;fill:none;stroke:#000000;stroke-width:1.20771849;stroke-linecap:butt;stroke-linejoin:miter;stroke-miterlimit:4;stroke-dasharray:none;stroke-dashoffset:0;stroke-opacity:1;marker:none;enable-background:accumulate"
     inkscape:connector-curvature="0" />
</svg>
