<?xml version="1.0" encoding="UTF-8" standalone="no"?>
<svg
   xmlns:dc="http://purl.org/dc/elements/1.1/"
   xmlns:cc="http://creativecommons.org/ns#"
   xmlns:rdf="http://www.w3.org/1999/02/22-rdf-syntax-ns#"
   xmlns:svg="http://www.w3.org/2000/svg"
   xmlns="http://www.w3.org/2000/svg"
   xmlns:xlink="http://www.w3.org/1999/xlink"
   xmlns:sodipodi="http://sodipodi.sourceforge.net/DTD/sodipodi-0.dtd"
   xmlns:inkscape="http://www.inkscape.org/namespaces/inkscape"
   version="1.1"
   width="24"
   height="24"
   id="svg4524"
   inkscape:version="0.91 r13725"
   sodipodi:docname="debug-next.svg">
  <sodipodi:namedview
     pagecolor="#ffffff"
     bordercolor="#666666"
     borderopacity="1"
     objecttolerance="10"
     gridtolerance="10"
     guidetolerance="10"
     inkscape:pageopacity="0"
     inkscape:pageshadow="2"
     inkscape:window-width="1005"
     inkscape:window-height="651"
     id="namedview20"
     showgrid="false"
     inkscape:zoom="9.8333333"
     inkscape:cx="10.016949"
     inkscape:cy="12"
     inkscape:window-x="2254"
     inkscape:window-y="180"
     inkscape:window-maximized="0"
     inkscape:current-layer="svg4524" />
  <defs
     id="defs4526">
    <linearGradient
       id="linearGradient2867-449-88-871-390-598-476-591-434-148-57-177-641-289-620-227-114-444-680-744-4-1">
      <stop
         id="stop5430-5-0"
         style="stop-color:#737373;stop-opacity:1"
         offset="0" />
      <stop
         id="stop5432-2-0"
         style="stop-color:#636363;stop-opacity:1"
         offset="0.26238" />
      <stop
         id="stop5434-9-6"
         style="stop-color:#4b4b4b;stop-opacity:1"
         offset="0.704952" />
      <stop
         id="stop5436-2-7"
         style="stop-color:#3f3f3f;stop-opacity:1"
         offset="1" />
    </linearGradient>
    <radialGradient
       cx="16.202444"
       cy="-19.005346"
       r="19.99999"
       fx="16.202444"
       fy="-19.005346"
       id="radialGradient3896-0"
       xlink:href="#linearGradient2867-449-88-871-390-598-476-591-434-148-57-177-641-289-620-227-114-444-680-744-4-1-5"
       gradientUnits="userSpaceOnUse"
       gradientTransform="matrix(0,1.7228924,2.095817,0,51.650871,-28.203945)" />
    <linearGradient
       id="linearGradient2867-449-88-871-390-598-476-591-434-148-57-177-641-289-620-227-114-444-680-744-4-1-5">
      <stop
         id="stop5430-5-0-9"
         style="stop-color:#737373;stop-opacity:1"
         offset="0" />
      <stop
         id="stop5432-2-0-0"
         style="stop-color:#636363;stop-opacity:1"
         offset="0.26238" />
      <stop
         id="stop5434-9-6-8"
         style="stop-color:#4b4b4b;stop-opacity:1"
         offset="0.704952" />
      <stop
         id="stop5436-2-7-0"
         style="stop-color:#3f3f3f;stop-opacity:1"
         offset="1" />
    </linearGradient>
  </defs>
  <metadata
     id="metadata4529">
    <rdf:RDF>
      <cc:Work
         rdf:about="">
        <dc:format>image/svg+xml</dc:format>
        <dc:type
           rdf:resource="http://purl.org/dc/dcmitype/StillImage" />
        <dc:title />
      </cc:Work>
    </rdf:RDF>
  </metadata>
  <path
     d="m 11.333936,4.0095985 c 0.337982,-0.01129 0.653786,0.1153744 0.902405,0.3230423 l 9.797551,8.0042672 c 0.202005,0.16873 0.328197,0.364036 0.386746,0.574298 0.03007,0.108002 0.05128,0.215199 0.04297,0.323042 0.0023,0.03479 0.0017,0.07263 0,0.107685 -0.01307,0.06315 -0.01618,0.119455 -0.04297,0.179468 -0.0559,0.216817 -0.178816,0.436511 -0.386746,0.610191 l -9.797551,8.004267 c -0.49724,0.415338 -1.309107,0.378161 -1.847784,-0.07178 L 8.454831,20.448858 C 7.9161555,19.998911 7.8716478,19.284876 8.368888,18.86954 l 3.99637,-3.338103 -9.0240607,0 c -0.7618024,0 -1.3750948,-0.512274 -1.3750948,-1.148594 l 0,-2.297189 c 0,-0.636322 0.6132924,-1.148595 1.3750948,-1.148595 l 9.0670317,0 L 8.3688876,7.5630628 C 7.8716478,7.1477271 7.9161555,6.4695861 8.454831,6.019639 l 1.933726,-1.6511046 c 0.26934,-0.2249737 0.607397,-0.3476434 0.945379,-0.3589359 z"
     id="rect3811-1-7"
     style="color:#000000;display:inline;overflow:visible;visibility:visible;opacity:0.35;fill:#ffffff;fill-opacity:1;fill-rule:nonzero;stroke:none;stroke-width:1;marker:none;enable-background:accumulate"
     inkscape:connector-curvature="0" />
  <path
     d="m 11.333936,2.8614312 c 0.337982,-0.01129 0.653786,0.1153742 0.902405,0.3230421 l 9.797551,8.0042677 c 0.202005,0.16873 0.328197,0.364036 0.386746,0.574298 0.03007,0.108002 0.05128,0.215199 0.04297,0.323042 0.0023,0.03479 0.0017,0.07263 0,0.107685 -0.01307,0.06315 -0.01618,0.119455 -0.04297,0.179468 -0.0559,0.216817 -0.178816,0.43651 -0.386746,0.610191 l -9.797551,8.004267 c -0.49724,0.415336 -1.309107,0.37816 -1.847784,-0.07178 L 8.454831,19.300689 C 7.9161555,18.850743 7.8716478,18.136709 8.3688876,17.721373 l 3.9963694,-3.338103 -9.0240601,0 c -0.7618025,0 -1.3750948,-0.512274 -1.3750948,-1.148594 l 0,-2.297189 c 0,-0.636322 0.6132923,-1.1485952 1.3750948,-1.1485952 l 9.0670321,0 L 8.3688876,6.4148953 C 7.8716478,5.9995596 7.9161555,5.3214187 8.454831,4.8714715 l 1.933726,-1.6511046 c 0.26934,-0.2249735 0.607397,-0.3476433 0.945379,-0.3589357 z"
     id="rect3811-1"
     style="color:#000000;display:inline;overflow:visible;visibility:visible;fill:url(#radialGradient3896-0);fill-opacity:1;fill-rule:nonzero;stroke:none;stroke-width:1;marker:none;enable-background:accumulate"
     inkscape:connector-curvature="0" />
  <path
     d="m 11.376907,3.4357284 c 0.117062,-0.00391 0.244483,0.024746 0.386745,0.1435743 l 9.797552,8.0042683 c 0.116179,0.09704 0.184241,0.213089 0.214858,0.323042 0.02352,0.08449 0.0017,0.122041 0,0.143574 a 0.68347371,0.57089453 0 0 0 0,0.03589 c -0.01066,0.05196 0.0018,0.02519 0,0.03589 3.96e-4,0.0059 0.0012,0.01137 0,0.03589 a 0.68347371,0.57089453 0 0 0 -0.04297,0.107686 c -0.03248,0.126024 -0.07248,0.240014 -0.171886,0.323041 l -9.797552,8.004269 c -0.219818,0.18361 -0.593193,0.186492 -0.902406,-0.07178 L 8.9275193,18.905861 C 8.631158,18.658314 8.6356785,18.288184 8.8415763,18.116202 L 12.837945,14.7781 a 0.68347371,0.57089453 0 0 0 -0.472688,-0.969127 l -9.0240604,0 c -0.3950167,0 -0.6875475,-0.244347 -0.6875475,-0.574297 l 0,-2.297189 c 0,-0.329952 0.2925308,-0.574298 0.6875475,-0.574298 l 9.0670324,0 A 0.68347371,0.57089453 0 0 0 12.880917,9.3940624 L 8.8415763,6.0200661 C 8.6217588,5.8364565 8.6183074,5.5245805 8.9275193,5.2663009 L 10.861247,3.6151963 c 0.15499,-0.1294615 0.356989,-0.1741665 0.51566,-0.1794679 z"
     id="path3996"
     style="color:#000000;display:inline;overflow:visible;visibility:visible;opacity:0.1;fill:none;stroke:#000000;stroke-width:1.25675249;stroke-linecap:round;stroke-linejoin:round;stroke-miterlimit:4;stroke-dasharray:none;stroke-dashoffset:0;stroke-opacity:1;marker:none;enable-background:accumulate"
     inkscape:connector-curvature="0" />
  <path
     d="m 11.333936,4.7996844 8.938116,7.2863966 -8.895145,7.286396 -1.074293,-0.897339 3.48071,-2.907381 a 2.0102802,1.6791545 0 0 0 -1.418067,-2.871486 l -8.3794847,0 0,-1.220381 8.4224567,0 A 2.0102802,1.6791545 0 0 0 13.826295,8.6044036 L 10.302614,5.6611302 11.333936,4.7996844 Z"
     id="path3996-3"
     style="color:#000000;display:inline;overflow:visible;visibility:visible;opacity:0.02999998;fill:none;stroke:#000000;stroke-width:1.25675249;stroke-linecap:butt;stroke-linejoin:miter;stroke-miterlimit:4;stroke-dasharray:none;stroke-dashoffset:0;stroke-opacity:1;marker:none;enable-background:accumulate"
     inkscape:connector-curvature="0" />
</svg>
